<svg xmlns="http://www.w3.org/2000/svg" viewBox="0 0 500 500"><g id="freepik--error-404--inject-20"><path d="M128.68,171.58l-.18,0c-4.5-1.75-7.19-3.45-8.59-5.5a5.14,5.14,0,0,1-3.23-.44,6.5,6.5,0,0,1-2.79-2.62,2.54,2.54,0,0,1-2.42.37,6.14,6.14,0,0,1-3-2.41,2.23,2.23,0,0,1-1.56.43c-3-.24-7-6.16-7.29-12.46a.52.52,0,0,1,.48-.53.5.5,0,0,1,.52.48c.28,6,4.11,11.33,6.38,11.51a1.26,1.26,0,0,0,.93-.27,12.28,12.28,0,0,1-1-9.42c.86-3,1.62-4.18,2.54-4,1.72.43,1.49,7,.58,11.29a6.14,6.14,0,0,1-.84,2.18,5.4,5.4,0,0,0,2.54,2.21,1.58,1.58,0,0,0,1.67-.35c-.78-1.93-1-4.57.12-7.93,1.4-4.43,2-4.55,2.31-4.63a.66.66,0,0,1,.64.22c.93,1.05-.18,7.93-1.34,11.33a5,5,0,0,1-.56,1.16,5.56,5.56,0,0,0,2.49,2.5,4.41,4.41,0,0,0,2.28.43c-.09-.19-.17-.38-.25-.58-.79-2.15-.4-4.62,1.19-7.58,1.05-1.95,1.91-2.87,2.71-2.87h0a1.11,1.11,0,0,1,1,.66c.87,1.61.24,6.92-1.48,9.56a4,4,0,0,1-1.62,1.4c1.34,1.76,3.89,3.31,8,4.89a.49.49,0,0,1,.29.64A.51.51,0,0,1,128.68,171.58ZM123,155.11s-.57,0-1.83,2.35c-1.45,2.68-1.82,4.89-1.13,6.75a5.06,5.06,0,0,0,.3.67,2.88,2.88,0,0,0,1.32-1.1c1.4-2.14,2.07-6.54,1.55-8.26C123.14,155.17,123,155.11,123,155.11Zm-7.18-4.21a23.33,23.33,0,0,0-1.34,3.53,11.38,11.38,0,0,0-.38,6.55l.09-.26A32.79,32.79,0,0,0,115.85,150.9Zm-6.58-3.15c-.17.15-.66.78-1.35,3.22a11.24,11.24,0,0,0,.72,8.24,6.18,6.18,0,0,0,.45-1.4C110.13,152.9,109.83,148.46,109.27,147.75Z" style="fill:#263238"></path><path d="M166.7,224a9,9,0,0,1-4.56-1.19.51.51,0,0,1-.18-.69.49.49,0,0,1,.68-.17c3.57,2.09,8.18.63,9.13-.9a.88.88,0,0,0,.15-.67,8.12,8.12,0,0,1-5.13-1.46c-2.55-1.59-2.75-2.07-2.73-2.45a.61.61,0,0,1,.34-.52c1-.5,5.51,1.57,7.39,2.81a3.63,3.63,0,0,1,.62.52,3.55,3.55,0,0,0,1.9-1.14,2.87,2.87,0,0,0,.59-1.13l-.2,0c-1.6.16-3.2-.53-4.91-2.11-1.18-1.08-1.63-1.83-1.48-2.42a.9.9,0,0,1,.72-.65c1.38-.35,4.8,1.11,6.19,2.64a2.68,2.68,0,0,1,.64,1.18c1.31-.61,2.69-2,4.32-4.27a.5.5,0,0,1,.7-.12.51.51,0,0,1,.12.7c-1.89,2.64-3.47,4.14-5.05,4.75a3.69,3.69,0,0,1-.87,2,4.6,4.6,0,0,1-2.18,1.41,1.84,1.84,0,0,1-.28,1.39C171.78,222.94,169.36,224,166.7,224Zm-.89-6.94c.34.25.82.58,1.51,1a8,8,0,0,0,3.6,1.32A24.67,24.67,0,0,0,165.81,217.06Zm3.49-4.25a4.33,4.33,0,0,0,1.17,1.39c1.48,1.37,2.83,2,4.13,1.84l.32,0a1.81,1.81,0,0,0-.44-.83C173.08,213.63,170,212.65,169.3,212.81Z" style="fill:#263238"></path><path d="M179.94,222.63l-15.58,2.83-14.15-77.22-30.06,5.46-49,87,5.26,28.71L139.26,258l4.3,23.48L173.62,276l-4.3-23.48,15.58-2.83ZM101.09,237l26-45.57,7.25,39.54Z" style="fill:#C22020"></path><path d="M305.43,143a58.84,58.84,0,0,0-3.2-14.22,46.31,46.31,0,0,0-7-12.19,40.37,40.37,0,0,0-12.7-10.36q-8-4.39-21.22-6.11-27.45-3.58-42.78,9.74t-20.2,51a139.33,139.33,0,0,0-1,28.34q1,13,4.78,20.93a43.74,43.74,0,0,0,14.65,17.78q9.47,6.65,26,8.79,29.38,3.83,43.57-11.29t18.8-51.1A129.48,129.48,0,0,0,305.43,143Z" style="fill:#C22020"></path><path d="M251.77,226.43c-2.41-.08-5-.3-7.61-.64-9.16-1.19-16.24-3.51-21.06-6.89a32.66,32.66,0,0,1-11-13.4l-.05-.11c-1.92-4-3.18-9.75-3.73-17a128.2,128.2,0,0,1,.92-26.1c3.57-27.72,10.94-39.29,16.49-44.11,6.48-5.62,15.23-8.16,26.73-7.76,2.36.08,4.86.29,7.43.62,7.38,1,13.23,2.6,17.37,4.86a29.79,29.79,0,0,1,9.31,7.49,35.25,35.25,0,0,1,5.35,9.27,47.78,47.78,0,0,1,2.56,11.55,118.67,118.67,0,0,1-.29,28.72c-2.77,21.54-8.13,36.68-15.92,45-5.78,6.16-14.45,9-26.51,8.54Z" style="fill:#263238"></path><path d="M271.34,143.29l.13-3.79-2.33-.76a22.82,22.82,0,0,0-.62-3.8l2-1.46-1.34-3.56-2.44.2a22.82,22.82,0,0,0-2-3.27l1.26-2.11-2.6-2.77-2.18,1.12a23.17,23.17,0,0,0-3.12-2.26l.35-2.42-3.46-1.57-1.58,1.86a23.26,23.26,0,0,0-3.75-.88l-.59-2.37-3.8-.13-.75,2.32a23.54,23.54,0,0,0-3.8.62l-1.47-2-3.56,1.33.2,2.44a22.94,22.94,0,0,0-3.27,2l-2.1-1.27-2.78,2.59,1.12,2.19a21.78,21.78,0,0,0-2.25,3.13l-2.42-.37-1.58,3.46,1.87,1.58a21.43,21.43,0,0,0-.88,3.76l-2.38.6-.13,3.78,2.33.76a22.6,22.6,0,0,0,.62,3.81l-2,1.45,1.34,3.56,2.44-.2a21.51,21.51,0,0,0,2,3.27l-1.27,2.11,2.6,2.77,2.18-1.11a23.1,23.1,0,0,0,3.12,2.25l-.36,2.42,3.46,1.57,1.59-1.85a23.12,23.12,0,0,0,3.76.87l.59,2.38,3.79.13.75-2.33a22.6,22.6,0,0,0,3.81-.62l1.45,2,3.56-1.33-.19-2.43a24.89,24.89,0,0,0,3.27-2l2.1,1.26,2.78-2.59-1.11-2.19a21.62,21.62,0,0,0,2.24-3.12l2.42.36,1.58-3.46-1.86-1.58a22.23,22.23,0,0,0,.87-3.75Zm-25.6,12.27a15,15,0,1,1,15.54-14.51A15,15,0,0,1,245.74,155.56Z" style="fill:#C22020"></path><path d="M287.12,212.87l.28-2.56-1.54-.62a16,16,0,0,0-.22-2.6l1.39-.89-.71-2.47-1.66,0a14.82,14.82,0,0,0-1.19-2.31l.94-1.36-1.6-2-1.53.64a16.07,16.07,0,0,0-2-1.68l.37-1.62-2.25-1.24-1.18,1.19a15.87,15.87,0,0,0-2.48-.79l-.28-1.63-2.55-.29-.63,1.54a14.85,14.85,0,0,0-2.59.24l-.89-1.42-2.47.73v1.66a14.9,14.9,0,0,0-2.31,1.2l-1.36-1-2,1.6.64,1.53a16.13,16.13,0,0,0-1.67,2l-1.62-.36-1.23,2.25,1.18,1.17a15,15,0,0,0-.79,2.49l-1.64.27-.27,2.55,1.53.64a14.73,14.73,0,0,0,.23,2.58l-1.41.89.72,2.47H256a15.22,15.22,0,0,0,1.2,2.3l-1,1.36,1.6,2,1.55-.65a14.55,14.55,0,0,0,2,1.67L261,224l2.25,1.23,1.17-1.17a16.12,16.12,0,0,0,2.48.77l.29,1.64,2.55.28.62-1.53A16.22,16.22,0,0,0,273,225l.89,1.41,2.46-.72v-1.66a16.45,16.45,0,0,0,2.32-1.2l1.34,1,2-1.61-.65-1.53a16.28,16.28,0,0,0,1.69-2l1.61.36,1.24-2.25-1.18-1.16a16.47,16.47,0,0,0,.77-2.48Zm-12.87-1a4.46,4.46,0,1,1-1.77-6.05A4.47,4.47,0,0,1,274.25,211.87Z" style="fill:#C22020;opacity:0.30000000000000004"></path><path d="M301.29,169.65l-3-2.06h0a16.59,16.59,0,0,0-1.2-3.1l.76-3-4.32-4.63-3,.56a17,17,0,0,0-3-1.41h0l-1.85-3.12-6.33-.21-2.06,3h0a15.92,15.92,0,0,0-3.1,1.2l-3-.77-4.63,4.33.56,3h0a15.68,15.68,0,0,0-1.41,3l-3.11,1.85-.22,6.33,3,2.06a16.11,16.11,0,0,0,1.2,3.12h0l-.76,3,4.32,4.63,3-.55a17.16,17.16,0,0,0,3,1.41h0l1.84,3.11,6.34.22,2.05-3a16.61,16.61,0,0,0,3.13-1.2h0l3,.76,4.63-4.32-.55-3a16.7,16.7,0,0,0,1.41-3h0l3.11-1.85Zm-19.73,9.62a7.12,7.12,0,1,1,7.36-6.87A7.13,7.13,0,0,1,281.56,179.27Z" style="fill:#fff"></path><path d="M323,119.12l.52-1.25h0a6.7,6.7,0,0,0,1-.69l1.16,0,1.36-2-.44-1.07A6.18,6.18,0,0,0,327,113h0l1-.92-.42-2.35-1.26-.52h0a6.35,6.35,0,0,0-.69-1l0-1.16-1.95-1.36-1.08.45h0a5.55,5.55,0,0,0-1.22-.28l-.92-1-2.34.42-.53,1.26a6.5,6.5,0,0,0-1.05.68h0l-1.15,0-1.36,2,.44,1.07a6.18,6.18,0,0,0-.28,1.22h0l-1,.93.42,2.34,1.26.52a5.73,5.73,0,0,0,.68,1h0l0,1.15,2,1.36,1.07-.44a6.43,6.43,0,0,0,1.23.27h0l.92,1ZM318,112.64a2.68,2.68,0,1,1,3.11,2.16A2.69,2.69,0,0,1,318,112.64Z" style="fill:#C22020"></path><path d="M295.61,112.49l-.77-.65a19.9,19.9,0,0,1,6-5l.47.88A18.87,18.87,0,0,0,295.61,112.49Z" style="fill:#C22020"></path><path d="M303.59,106.8l-.39-.92A23.92,23.92,0,0,1,314.94,104l-.1,1A22.79,22.79,0,0,0,303.59,106.8Z" style="fill:#C22020"></path><path d="M301.7,113.72l-.82-.56a16.74,16.74,0,0,1,9.87-6.39l.19,1A15.72,15.72,0,0,0,301.7,113.72Z" style="fill:#C22020"></path><path d="M235.34,210a.52.52,0,0,1-.36-.16l-2.09-2.16a17.49,17.49,0,0,1-3.15-.58l-3.27,1.44a.49.49,0,0,1-.47,0l-5.48-3.63a.49.49,0,0,1-.22-.43l0-3.56a17.2,17.2,0,0,1-1.76-2.68l-2.81-1.08a.5.5,0,0,1-.31-.37l-1.3-6.44a.5.5,0,0,1,.14-.46l2.16-2.09a18.78,18.78,0,0,1,.58-3.15l-1.44-3.27a.49.49,0,0,1,0-.47l3.63-5.48a.47.47,0,0,1,.43-.22l3.56.05a16.52,16.52,0,0,1,2.68-1.76l1.09-2.81a.49.49,0,0,1,.36-.31l6.44-1.3a.49.49,0,0,1,.46.14l2.09,2.16a17.76,17.76,0,0,1,3.16.58l3.26-1.44a.51.51,0,0,1,.48,0l5.47,3.63a.54.54,0,0,1,.23.43l-.06,3.56a17.26,17.26,0,0,1,1.77,2.68l2.8,1.09a.49.49,0,0,1,.31.36l1.31,6.44a.52.52,0,0,1-.14.46l-2.17,2.1a18,18,0,0,1-.58,3.14l1.44,3.27a.51.51,0,0,1,0,.48L250,203.59a.51.51,0,0,1-.42.22l-3.57-.05a18.38,18.38,0,0,1-2.67,1.76l-1.09,2.81a.49.49,0,0,1-.37.31L235.44,210ZM229.71,206a.36.36,0,0,1,.14,0,16.66,16.66,0,0,0,3.31.61.56.56,0,0,1,.32.15l2,2.1,5.9-1.19,1.06-2.74a.55.55,0,0,1,.24-.26,16.05,16.05,0,0,0,2.81-1.85.47.47,0,0,1,.33-.11l3.47.05,3.32-5-1.4-3.18a.5.5,0,0,1,0-.34,17.49,17.49,0,0,0,.61-3.31.51.51,0,0,1,.15-.32l2.1-2-1.19-5.9-2.73-1.06a.49.49,0,0,1-.27-.24,16.43,16.43,0,0,0-1.85-2.81.52.52,0,0,1-.11-.32l0-3.48-5-3.32-3.17,1.4a.52.52,0,0,1-.35,0,17,17,0,0,0-3.32-.61.56.56,0,0,1-.32-.15l-2-2.1-5.9,1.2L226.81,174a.51.51,0,0,1-.23.27,15.94,15.94,0,0,0-2.82,1.85.43.43,0,0,1-.32.11l-3.47-.05-3.33,5,1.4,3.18a.5.5,0,0,1,0,.43,17.13,17.13,0,0,0-.58,3.23.5.5,0,0,1-.15.32l-2.1,2,1.2,5.9,2.72,1.06a.55.55,0,0,1,.28.26,16.22,16.22,0,0,0,1.84,2.79.48.48,0,0,1,.11.32l0,3.48,5,3.32,3.18-1.4A.52.52,0,0,1,229.71,206Zm4.91-3.24a13.32,13.32,0,0,1-11.09-20.68h0a13.33,13.33,0,1,1,11.09,20.68Zm-10.25-20.13a12.32,12.32,0,1,0,17.08-3.46,12.27,12.27,0,0,0-17.08,3.46Z" style="fill:#fff"></path><path d="M425.83,231.65l-15.7-2.12,10.38-77.81-30.28-4.08-73.45,67.62-3.86,28.93,63.29,8.54-3.16,23.67,30.28,4.08,3.16-23.66,15.7,2.12Zm-79.42-10.72,38.76-35.33-5.32,39.84Z" style="fill:#C22020"></path><path d="M394.13,279.74H394a.5.5,0,0,1-.4-.58L417,151.22a.51.51,0,0,1,.58-.4.5.5,0,0,1,.4.58L394.63,279.33A.51.51,0,0,1,394.13,279.74Z" style="fill:#263238"></path><path d="M414.83,153.37a.82.82,0,0,1-1.64-.06.82.82,0,0,1,1.64.06Z" style="fill:#263238"></path><path d="M411.5,170.67a.82.82,0,1,1-.79-.85A.82.82,0,0,1,411.5,170.67Z" style="fill:#263238"></path><path d="M408.17,188a.82.82,0,0,1-.85.79.81.81,0,0,1-.79-.84.82.82,0,0,1,.85-.8A.83.83,0,0,1,408.17,188Z" style="fill:#263238"></path><path d="M401.61,206a.82.82,0,0,1-1.63,0,.82.82,0,1,1,1.63,0Z" style="fill:#263238"></path><path d="M401.5,222.57a.81.81,0,0,1-.85.79.82.82,0,1,1,.85-.79Z" style="fill:#263238"></path><path d="M398.17,239.87a.82.82,0,1,1-.79-.84A.82.82,0,0,1,398.17,239.87Z" style="fill:#263238"></path><path d="M394.84,257.17a.83.83,0,0,1-.85.8.82.82,0,0,1-.79-.85.82.82,0,0,1,1.64.05Z" style="fill:#263238"></path><path d="M391.5,274.48a.82.82,0,1,1-.79-.85A.81.81,0,0,1,391.5,274.48Z" style="fill:#263238"></path><path d="M400.79,206.45a.49.49,0,0,1-.48-.39.5.5,0,0,1,.38-.6l2.48-.53a.5.5,0,0,1,.6.39.5.5,0,0,1-.39.59l-2.48.53Z" style="fill:#263238"></path><path d="M409.08,197.24a85.06,85.06,0,0,0-3,9.36c-.75,3.53-.79,11.43-.79,11.43" style="fill:#263238"></path><path d="M405.29,218.53h0a.52.52,0,0,1-.5-.51c0-.32.06-8,.81-11.52a84.22,84.22,0,0,1,3-9.44.5.5,0,1,1,.93.36,84.37,84.37,0,0,0-3,9.29c-.73,3.44-.78,11.24-.79,11.32A.5.5,0,0,1,405.29,218.53Z" style="fill:#263238"></path></g></svg>